<svg xmlns="http://www.w3.org/2000/svg" viewBox="0 0 1417.32 1417.32"><g id="Слой_2" data-name="Слой 2"><g id="Слой_1-2" data-name="Слой 1"><path d="M1380.26,26.53c8,5,7.09,12.79,7.41,19.78.92,20.72,1,41.48,2.27,62.17.92,15.2,3.27,30.3,4.73,45.46.7,7.21.7,14.48,1.24,21.71.95,12.64,2.07,25.26,3.13,37.89.82,9.79,1.7,19.57,2.47,29.36,1.21,15.47,2.6,30.94,3.46,46.43.83,15,1.45,30,1.52,45.06.08,18.42,1.1,36.74,2.37,55.12,1.3,18.87.57,37.9.78,56.85q.73,68.13,1.53,136.25c.31,26.72.21,53.46,1.16,80.15.71,20.15,2.82,40.25,4.23,60.37.38,5.43.67,10.89.68,16.33,0,79.5.2,159-.07,238.51q-.14,42.39-2.11,84.76c-.63,13.77-1.39,27.35,1.6,40.93.77,3.49.58,7.24.58,10.87,0,34.81,0,69.63.08,104.44,0,8.62-1.24,17-2.68,25.41-2.21,13-5.84,25.54-8.56,38.33a166.26,166.26,0,0,1-11.87,35,8.17,8.17,0,0,1-1,2.08c-8,9-16,18-24,27a11.54,11.54,0,0,1-4.32,3.14c-12.06,4.43-23.52,10.13-36.74,11.74a290.9,290.9,0,0,1-31.84,1.91c-22.37.29-44.74.2-67.1.78-22.06.56-44,1.86-65.9,5.81-19.7,3.56-39.7,5.44-59.57,8.09-25.88,3.45-51.72,7.28-77.66,10.29-23.66,2.74-47.44,4.49-71.15,6.93-13.37,1.37-26.68,3.41-40,4.85a164.53,164.53,0,0,1-17.49.65,266.33,266.33,0,0,0-41,3,186.86,186.86,0,0,1-25,1.69c-22.37.41-44.74.44-67.11.79a144.15,144.15,0,0,0-19.72,1.25c-14.63,2.25-29.33,2.24-44,2.88-19.74.86-39.42,3-59.13,4.52-1.77.15-3.53.57-5.3.62-12.69.34-25.39.83-38.08.88-65.61.3-131.22.35-196.83.8-19.21.13-37.83-3.48-56.47-7.31-9.69-2-19.31-4.41-28.84-7.08-5.6-1.56-11-4-16.43-6-.23-.09-.44-.24-.68-.34-11.69-4.71-23.56-9-35-14.25s-23.8-7-35.59-10.83c-4.52-1.49-9.42-1.77-14.15-2.54-1-.16-2.07.12-3-.1-13-3-26.09-5.89-39.07-9.08-18-4.42-35.84-9.22-53.84-13.51-5.61-1.34-11.58-1.1-17.2-2.4-7.51-1.73-14.87-4.16-22.21-6.53-1.3-.42-2.42-1.88-3.28-3.11-4.67-6.69-9.6-13.07-12.51-21-3-8.15-7.62-15.67-11.54-23.46-.93-1.84-2.34-3.57-2.76-5.52-4.33-19.9-8.19-39.79-10.54-60.16-2.56-22.17-2.39-44.43-4.84-66.58-2.84-25.67-4.64-51.52-5.64-77.42-.68-17.81-2.39-35.59-3-53.47-.77-21.67-3.42-43.27-5.25-64.9a13.3,13.3,0,0,1-.06-1.55c.23-27.54-3.86-54.73-6.71-82-1.82-17.47-5.32-34.74-7.61-52.16C3,811.85.74,797.7.51,783.54c-.61-36.36-.74-72.75,0-109.11a617.31,617.31,0,0,1,4.74-64.16c1.53-12.22,6.28-24,9.36-36,2.31-9,4.65-18,6.29-27.12,2.27-12.7,4.6-25.47,5.63-38.31,1.65-20.63,2.18-41.36,3.31-62,.74-13.44,1.16-26.93,2.82-40.25.59-4.7,4.46-9,6.76-13.46,1.28-2.49,2.43-5,3.6-7.58,1.06-2.32,1.94-4.74,3.13-7,4.43-8.37,9-16.67,13.38-25.07a7.26,7.26,0,0,0,.25-3.79c-1.34-13.89-2.45-27.81-4.18-41.64a362.75,362.75,0,0,1-3.08-38.7c-.16-9-2.13-18-2.87-27-.53-6.45-.45-13-.48-19.45,0-7.26.18-14.47-2.43-21.5-.94-2.54-.62-5.63-.62-8.48,0-24.16.22-48.32-.13-72.48-.17-11.71,4-22,9.45-31.51C63,75.55,74.15,65.19,86.69,56.58,93,52.28,99.14,47.47,106,44.51c10-4.31,20.78-6.18,31.62-8,18.68-3.15,37.36-3.6,56.15-3.7a24.75,24.75,0,0,0,5.29-.62c13.24-3.05,26.75-2.4,40.15-3.19,6.32-.37,12.61-1.28,18.92-1.86,8.07-.74,16.15-1.36,24.23-2.1,10.85-1,21.68-2.43,32.55-3,13.45-.66,26.93-.64,40.39-.81,25.92-.34,51.86-.23,77.76-1.06,12.39-.39,24.71-2.64,37.09-3.77,10.6-1,21.23-1.65,31.86-2.27,7.1-.41,14.21-.44,21.32-.76a14.56,14.56,0,0,0,10.3-4.21c4.93-5,11-6.85,18-6.75,18.82.28,37.65.24,56.47,0a29.42,29.42,0,0,1,17.2,5.23A14.88,14.88,0,0,0,633,10.22c18.56.21,37.15.63,55.7-.06,14.93-.55,29.8-2.57,44.7-3.93,19.19-1.76,38.38-3.59,57.58-5.2C798,.44,805.13.16,812.23.14,846.06.05,879.9.28,913.73,0c12.63-.1,24.65,2.62,36.74,5.74,21.85,5.63,43.48,12.37,66,14.89a64.72,64.72,0,0,0,6.81.59c33.55.26,67.11.72,100.67.54,8.75-.05,16.25,2.64,24,6s16.29,5.51,24.52,8c1.38.41,3,0,4.53-.15,6.54-.61,13.08-1.75,19.63-1.82,22.89-.22,45.78-.07,68.68-.1,2.28,0,5,.6,6.76-.43,7.28-4.26,15.31-2.86,23-4C1323.7,24.88,1352.42,27.28,1380.26,26.53ZM816.42,146.28c-.14.6-.28,1.19-.41,1.79,1.36,1,2.65,2.16,4.09,3,9.16,5.56,18.56,10.74,27.5,16.66,20,13.25,40.06,26.54,59.67,40.42C921,217.93,934.12,228.67,944.9,242c8.22,10.15,16.53,20.26,24.3,30.77,7.48,10.12,14.63,20.52,21.35,31.18,8.81,14,15.23,29.2,21.59,44.47,10.44,25.07,19.89,50.5,25.68,77.15,5.32,24.51,10.81,49.14,11.43,74.32,1,39.44.84,78.91,1.18,118.36,0,1.82.1,3.65,0,5.46-1.31,17.79-2.93,35.56-3.94,53.37a253.39,253.39,0,0,1-9.54,55.71c-6.2,21.6-12.62,43.16-19.61,64.51-5.3,16.18-11.49,32.06-17.59,48-3,7.7-6.78,15-9.92,22.69-6.39,15.51-11.88,31.45-19,46.57-10,21.22-21.61,41.68-31.93,62.77A328.28,328.28,0,0,1,900.54,1037c-11.37,14.34-26.79,23.54-42.83,31.45-11.64,5.74-24.09,7.29-37,6.85-16.26-.56-32.56-.37-48.83-.07-14.69.27-28.71-3.22-42.64-7.17-5.08-1.45-10.36-3.36-14.62-6.42-12.84-9.23-25.34-19-37.7-28.86-3-2.37-5.55-3.83-9.42-3.8-20.61.19-41.21.27-61.81,0a154.28,154.28,0,0,1-22.69-2.11A13.48,13.48,0,0,0,573,1029c-18.93,11.56-36.88,24.73-56.76,34.75-10.26,5.16-20.43,8.77-32,8.4-12.7-.4-25.43-.12-38.15,0-1.54,0-3.08.57-6.25,1.19,5.39,3.64,9.4,6.26,13.33,9,3.55,2.48,7.11,5,10.49,7.68,8,6.39,15.94,12.83,23.77,19.42,5.27,4.44,10.46,9,15.43,13.79,10,9.6,19.66,19.49,29.65,29.06,9.62,9.23,19.32,18.38,29.25,27.25,10.76,9.61,22.53,17.67,36.07,22.75A263,263,0,0,0,656.08,1217a57.79,57.79,0,0,0,17.36-.55c8.74-1.56,17.2-4.69,25.94-6.16,17-2.86,34.14-4.92,51.19-7.5,26.16-4,52.41-6.75,78.89-5.34,11.89.64,23.11-1.49,34.25-5.57,18.15-6.66,36.39-13.09,54.76-19.05,21.61-7,44-10.09,66.45-12.82,12.32-1.5,24.73-2.3,37-4,10.3-1.4,20.5-3.56,30.73-5.45,3.87-.72,6.08-3.15,6.74-7.18,1.18-7.13,2.73-14.21,3.71-21.37,1.29-9.47,1.71-19.08,3.35-28.47,5.19-29.81,11-59.5,16.14-89.32,5-29.24,14-57.23,24.42-84.8,4.84-12.8,10.48-25.29,15.13-38.16,7.54-20.89,15.5-41.65,20.7-63.37a43,43,0,0,0,.67-17.55c-3.87-22.95-7.66-45.91-11.83-68.8-7.28-40.05-18.85-79-30.13-118-5.38-18.59-12.44-36.67-18.76-55-15.34-44.44-24.79-90.72-40.87-135-6.86-18.89-11.45-38.64-17.58-57.84-3.61-11.32-7.74-22.42-9.61-34.27-1-6.08-3.29-11.92-4.6-18a66.5,66.5,0,0,1-1.87-13.78c-.14-38.45-.08-76.9-.08-115.35v-7.13c-12.84-6.37-25.15-13.1-38-18.61A148.12,148.12,0,0,0,942,149.83c-17.86-3.69-35.92-6.45-53.93-9.36a58.23,58.23,0,0,0-15.05-.92C854.14,141.53,835.29,144,816.42,146.28ZM475.19,89H465.7c-44.71-.08-89.43-.21-134.13,1.56-1,0-2,0-3.05.07-33.88,3.27-67.87,3.64-101.85,4.66-7.33.22-14.66.83-22,1.6-13.65,1.42-27.21,3.5-40.19,8.28a41.59,41.59,0,0,0-10.87,5.43c-9.33,7.12-18.44,14.52-26.06,23.7-13.58,16.35-19,35-16.61,56.27,1.08,9.49,1.6,19.06,2.23,28.6.28,4.14.05,8.31.3,12.46,1.39,22.46,3.27,44.91,4.2,67.39,1,24.1,1.44,48.23,1.55,72.35.1,21.78-.48,43.57-1,65.35-.33,14.76-1,29.52-1.59,44.28-.91,21.46-2,42.91-2.93,64.37-.62,14.5-1.08,29-1.62,43.49-.2,5.7-.47,11.4-.59,17.11-.31,13.48-1,27-.69,40.43.38,17.85,1.7,35.68,2.31,53.53.34,9.75,0,9.75-9.05,10.79-.4.05-.75.58-1.66,1.34.36,2.15.73,4.65,1.21,7.13,3.67,19.05,8.07,38,10.88,57.15,5.16,35.29,8.69,70.79,11,106.4.34,5.44-.29,11,.63,16.31,4.45,25.88,2.53,52.16,5.15,78.19,2.46,24.43,2.36,49.12,3.87,73.67,1.61,26.07,3.66,52.11,5.8,78.15.75,9,1.43,18.19,3.75,26.85,3.18,11.88,4.29,24.43,10.06,35.56,2.95,5.69,5.68,11.51,8.69,17.18,3.72,7,8.12,13.71,11.31,21,2.19,5,6.91,5.53,10.42,8.09,1.43,1,4.32-.05,5.87.93,8.27,5.21,18.42,2.65,26.85,7,.42.21,1.27-.42,2.19-.76,0-1.41,0-2.69,0-4,.17-33.76.48-67.53.41-101.29a65.56,65.56,0,0,1,4.6-24.2c7.9-20.31,17.16-39.87,30.45-57.21,4.65-6.07,9-12.4,14-19.36-1.4-1-2.53-1.63-3.49-2.47Q252,1023.84,238,1011.29c-16.65-14.93-30.75-32.22-44.34-50-4.21-5.5-9.4-10.31-13.06-16.15-7.48-11.95-16.62-23-20.33-37.15a9,9,0,0,0-1.15-2c-10.1-17.33-16.54-36.15-20.45-55.78-3.44-17.22-6.92-34.51-6.63-52.26.33-19.45.75-38.89,1-58.34A216.83,216.83,0,0,1,135,710.18c2.64-17.91,4.37-35.93,10.61-53.08a127.53,127.53,0,0,0,4.36-14.05c3.77-15.83,7.29-31.73,10.95-47.6,1.8-7.8,4.3-15.5,5.45-23.4,3.59-24.55,7.5-49.1,9.72-73.79,2.13-23.7,2.29-47.59,3.36-71.39.48-10.87.32-21.82,1.72-32.57,4.2-32.31,8.9-64.55,13.63-96.79,2.37-16.16,5.25-32.23,13-46.87a20.09,20.09,0,0,0,1.61-4.35c2.83-11,9.78-19.15,17.42-26.82C236,210.25,248,206,259.65,202.06c14.89-5,30.35-8.2,45.57-12.17,5.41-1.4,10.94-2.4,16.22-4.19,24.53-8.34,48.94-17.07,73.51-25.28,15.2-5.07,30.6-9.52,45.94-14.12a10.21,10.21,0,0,0,6.83-5.44C456.49,123.93,465.53,107.15,475.19,89Zm619.34,1136.21a53.7,53.7,0,0,1-1.46,6.95,133.43,133.43,0,0,1-5.23,13.68c-3.14,6.75-8.31,9.68-16,9.44-14.74-.48-29.51.09-44.26-.26a66.06,66.06,0,0,1-16.43-2.63c-8.52-2.45-16.87-5.57-25.21-8.63a11.93,11.93,0,0,0-8.79.21c-33.47,12.12-67.31,23-101.43,33.13-35.41,10.47-71.82,14.54-108.32,15.12-71.72,1.13-143.46.34-215.19.31a79.39,79.39,0,0,1-9.12-.5,399,399,0,0,0-54-2.64c-10.17.23-20.35.12-30.52,0-16.77-.16-33.54-.44-50.32-.65-4.2,0-8.41,0-12.61,0a36.38,36.38,0,0,0,17.91,8.44q13.86,2.53,27.69,5.26c19.47,3.86,39,6.35,58.93,5.71,20-.66,40.11-1,60.15-1.65,7.09-.24,14.15-1.12,21.22-1.74,7.32-.64,14.63-1.54,22-2,10.13-.57,20.29-.68,30.42-1.18,11.4-.55,22.79-1.79,34.19-1.9,48.79-.49,97.59-.66,146.38-1a88.45,88.45,0,0,0,9.86-.86c10.07-1.23,20.11-2.76,30.2-3.76,10.35-1,20.77-1.24,31.1-2.37,14.12-1.55,28.21-3.44,42.26-5.52,23.58-3.5,47.15-7.07,70.66-11,24-4,48-8.26,72-12.63a248.51,248.51,0,0,1,47-3.6c32.3.27,64.61.34,96.91-.1a89.58,89.58,0,0,0,24.61-4c14.62-4.47,28.11-11.48,39.22-22.62,4.88-4.89,11.42-8.59,14.89-14.3,5-8.21,10.43-16.47,12.31-26.45a75.39,75.39,0,0,1,5.6-18.44,60.13,60.13,0,0,0,4.84-15.32c1.12-6.07,3.32-12.11,3.42-18.19.64-39.18.84-78.38,1.16-117.57.06-7-.24-14,.08-21s1.2-13.91,1.85-20.86c.88-9.51,2-19,2.6-28.55.89-15,1.31-30,2.09-45,.26-4.89,1.45-9.76,1.46-14.64.09-38.65,1.52-77.41-3.57-115.82-3.77-28.47-2.72-57-2.94-85.47-.15-19.23,0-38.46-.06-57.68,0-1.91-.36-3.82-.64-6.52-5.75,3.52-10.77,6.47-15.67,9.63-10.71,6.89-21.26,14.05-32.06,20.8-11,6.86-21,15.24-28.3,25.66a160.83,160.83,0,0,0-25.66,56.81,51.93,51.93,0,0,0-.69,17.69c1.06,9.76,2.67,19.56,2.68,29.34.09,57.41-.21,114.82-.39,172.23a42.64,42.64,0,0,1-.22,4.66c-1.77,15.4-3.43,30.81-5.39,46.18-3,23.58-5.15,47.27-9.87,70.63-3.38,16.71-4.53,33.88-10,50.18-3.6,10.74-5.17,22.23-11.27,32-5.71,9.2-11.38,18.43-17.21,27.56-5.69,8.92-13.13,15.66-23.2,19.2-5.75,2-11.23,4.9-17,6.73C1116.81,1219.05,1106.28,1221.82,1094.53,1225.17ZM1045.71,88.92l-.27,1.72c4.31,1.45,8.65,2.8,12.91,4.38,6.4,2.38,12.67,5.18,19.14,7.34,5.94,2,7.29,5.94,7.13,11.9-.74,28-1,56-1.74,84a44.18,44.18,0,0,1-2.46,12.89c-3.83,11.26-3.17,22.38-.27,33.66,1.6,6.24,2.68,12.61,4,18.92,1.46,6.82,2.62,13.73,4.49,20.43,3.81,13.7,8.1,27.25,12,40.92,4.2,14.64,8,29.4,12.32,44,4.47,15.11,9.26,30.13,14.07,45.14,9.15,28.53,17.37,57.44,27.89,85.44,14.56,38.77,26.76,78.23,38,118.07,1.63,5.8,3.3,11.58,5.09,17.87,4.54-5.18,8.82-9.59,12.57-14.43,6.58-8.53,15.31-14.29,23.89-20.28,11.3-7.89,22.51-15.9,33.94-23.58,9.61-6.46,18.9-13.16,25.1-23.38,2.67-4.41,5.06-9,8.1-13.16a50.6,50.6,0,0,0,9.24-19.43c1.7-8,4.14-16.44,3.33-24.38-1-9.33-5.09-18.32-7.79-27.48-1.39-4.7-2.79-9.39-4-14.15s-1.47-9.83-3.22-14.33c-3.78-9.75-5.34-19.94-7.06-30.15-.86-5.08-2-10.13-3.32-15.11-3.42-13-7.71-25.8-10.3-39a141.19,141.19,0,0,0-13.68-39.38c-3.63-6.83-7.68-13.6-10.11-20.89-5-14.94-9.72-30-13.22-45.39-5.39-23.66-10.55-47.42-12.8-71.73-.39-4.27-.21-9.53-4.52-12.72-8.62-6.38-17.28-12.7-25.81-19.21-3.21-2.45-6.09-5.35-9.13-8-7.09-6.28-14-12.53-24.58-11.64a160.75,160.75,0,0,1-20.59,0c-2.35-.1-5.17-.77-6.89-2.26-8-6.92-16.54-12.22-27.13-14.35-11.45-2.31-11.91-3.42-12.54-12.71,0-.47-.41-.92,0,0C1080.77,88.1,1063.53,86.54,1045.71,88.92ZM570.18,287c20,0,39.25-.05,58.55.07a7.17,7.17,0,0,1,4.7,1.84c5.22,5.58,11.17,9.64,18.71,11.14,1.41.27,2.57,1.66,4,2.28,3.22,1.47,6.46,3,9.79,4.14,4.79,1.69,9.76,2.85,14.5,4.69,13.66,5.31,27.87,7.8,42.36,8.5,16.3.79,32.36,2.44,47.69,8.71,8.93,3.66,18.4,6.21,26.89,10.71a170.31,170.31,0,0,1,25.34,17c13.85,10.91,27.64,22,38.7,36.05,12.84,16.32,25.29,33,38.51,48.93,22.51,27.21,40.11,57.18,51,91.11,3.07,9.61,5.22,19.35,5.09,29.69-.36,27.79-.33,55.59-.06,83.38.22,22.84,0,45.61-4.64,68.08-2.7,13-6.3,25.56-13.21,37-4.52,7.47-8.55,15.25-12.93,22.82-9.65,16.7-18.46,34-29.3,49.87-16.54,24.2-34.46,47.43-51.89,71-7.18,9.71-14.08,19.72-22.09,28.69-9.07,10.15-17.7,20.57-26,31.41-6.5,8.54-14.28,16.1-21.76,23.81-6.53,6.73-13.45,13.07-20.48,19.86a77.93,77.93,0,0,0,33.33,17.71,12.89,12.89,0,0,0,9.47-.88c7.57-3.73,14.82-7.87,21-13.83,6.45-6.18,14.38-11.06,19.71-18.06,9.79-12.86,19.16-26.3,26.86-40.53,11.67-21.53,21.85-43.9,32.48-66,4.36-9.07,8.74-18.18,12.26-27.6,8.85-23.67,16.76-47.7,25.9-71.24,8.54-22,14.11-44.82,20.78-67.36,11.18-37.73,20.84-75.75,22.07-115.46.36-11.63,1.77-23.3,1.1-34.86-.84-14.42-3.2-28.75-5.15-43.09-4.18-30.66-12.52-60.24-23.57-89-7.22-18.8-14.79-37.45-24.66-55.09-9.62-17.2-22-32.29-33.26-48.25-10.86-15.42-23.37-29.43-38-41.12-15.39-12.27-31.14-24.14-47.3-35.32-36.77-25.42-74.86-48.87-109.89-76.88-3.35-2.69-6.58-3-10.59-2.13-25.79,5.76-51.53,11.78-77.44,16.86-37.47,7.34-73.91,18.49-110.41,29.5-5.76,1.74-9.71,4.71-12.49,10.26-7.16,14.27-15,28.2-22.16,42.45A472.36,472.36,0,0,0,430.72,353c-2.69,9.57-4.84,19.3-7.23,28.95l1.55,1c1.48-1.09,3.32-1.89,4.39-3.3,5-6.53,10-13.05,14.58-19.92a97.3,97.3,0,0,1,39.39-34.51c11.54-5.59,23.4-9.58,36.62-8.82,12.17.69,24.4.16,36.61.14,9.12,0,11.26-2.16,12-11.8C569.07,299.13,569.61,293.5,570.18,287Zm16.24,355.44v-6.9c0-17.4-.07-34.8.06-52.2a66.82,66.82,0,0,1,1.19-11.54c4.91-26.65,17.21-49.62,34.28-70a10.75,10.75,0,0,0,2.6-9.83C619.36,463,610.06,435.34,599.71,408a63,63,0,0,0-7.3-13.52c-4.21-6-4.47-5.8-11.34-3.49-19.74,6.65-39.53,13.16-59.23,19.94-13.21,4.54-26.23,9.64-39.47,14-3.9,1.3-6.78,3.05-8.75,6.72Q466,446.05,458,460.21c-14.1,25.06-25.27,51.37-32.36,79.38a17.37,17.37,0,0,0-.19,8.35,150.17,150.17,0,0,0,6.44,19.88c8.72,20.55,22.23,37.65,38.22,52.68,8.2,7.71,17.34,14.37,25.74,21.86a123.48,123.48,0,0,1,13.76,14.34c5.44,6.71,10.26,13.93,15.77,21.51,8.12-9.82,18-16.2,28.3-21.6S575,647.28,586.42,642.41ZM391.8,251.5c-7.44,1.87-13.51,3.58-19.66,4.9-16.39,3.51-32.67,7.33-47.82,15-4.54,2.28-8.93,4.9-13.47,7.2-14.62,7.39-23.45,20.2-30.66,34.41-3.48,6.85-6.39,14-9.58,21-1,2.11-2.32,4.1-2.91,6.3-4.08,15.21-9,30.28-11.76,45.74-6.49,36.37-12.44,72.86-14.32,109.89-.64,12.65-2.13,25.25-3.25,37.87-.5,5.66-.71,11.37-1.63,17-2.51,15.3-4.9,30.65-8.13,45.8-4.62,21.73-10,43.31-15,65-2.9,12.58-5.52,25.24-8.57,37.78-3.18,13-7.3,25.84-10,39-2,10.07-3.86,20.61-3.13,30.74.88,12.28,4.23,24.42,7.07,36.48,4.87,20.66,17.06,38,25.34,57.14a11.58,11.58,0,0,0,1.26,1.95c8.72,12.08,16.52,24.9,27.49,35.14a28,28,0,0,1,3.67,3.95c16.42,22.65,37.47,40.67,57.39,59.81,2.53,2.42,5.49,4.36,8.47,6.7l11.09-12.35c-1.17-2.56-2.16-4.94-3.32-7.23-13.67-26.92-26.64-54.13-34.52-83.55-.67-2.49-1.78-4.84-2.58-7.29-5.8-17.67-12.24-35.15-17.14-53.08-3.54-13-6.88-25.94-11.71-38.49-1.76-4.56-3-9.34-4.39-14-2.94-9.89-5.88-19.77-8.71-29.69-4.61-16.14-10.46-32.1-10.86-49.09-.63-26.47-.68-53-.51-79.44.08-13.2.83-26.41,1.92-39.56,1.43-17,3.78-33.91,10.06-50,8.39-21.45,19.59-41,36.72-56.41,11.73-10.57,25.22-18.22,39.64-24.29,7-3,13.82-6.54,20.91-9.33,6.24-2.45,9-6.07,8.4-13.35a105.57,105.57,0,0,1,1.13-22.44c1.71-12.28,4-24.48,6.29-36.66a484.75,484.75,0,0,1,20.52-75.44ZM474.88,768c-9.54,0-17.67-.48-25.72.11-13.35,1-25.58-3-37.79-7.53a30.64,30.64,0,0,1-12.92-9.3,168.22,168.22,0,0,1-21.52-31.94C367,700,360.49,679.53,359.72,657.84c-1.39-39.12,1-78.3-2-117.46-1.35-17.81-.21-35.81-.26-53.73a54.74,54.74,0,0,0-.59-5.81,9.79,9.79,0,0,0-2.08.62c-2.53,1.72-5.08,3.41-7.53,5.25-23.63,17.72-37.55,42.34-47.46,69.79-7.29,20.16-8.43,41.48-10.91,62.52-.66,5.58-1.25,11.47-.26,16.91,2.73,15,6.22,29.81,9.58,44.66,2.11,9.33,4.43,18.6,6.83,27.86,1.68,6.5,3.65,12.93,5.47,19.39,2.59,9.19,5.21,18.37,7.7,27.58,2,7.48,3.42,15.17,5.93,22.47,6.57,19,13.1,38.11,20.58,56.77,7.39,18.45,15.82,36.46,24,54.56,2.16,4.78,5.14,9.17,8.19,14.53C410.37,858.83,447.46,818.15,474.88,768ZM416.11,969.82A322.07,322.07,0,0,0,446.38,1013c5,6.1,10.78,8.1,18.71,3.12,18.35-11.53,37.12-22.35,55.64-33.59,5.4-3.28,10.56-7,15.31-10.13.53-25,1.42-49.06,1.43-73.17,0-22.93,3.5-45.35,7.51-67.78,1.76-9.85,2.68-19.87,4-29.93-2.8-.68-4.75-1.16-6.71-1.62l-6.74-1.51a15.81,15.81,0,0,0-1.88,2.49c-14.64,30.06-33.76,57.19-53.31,84C464.73,906.28,448.17,927,432.11,948,426.68,955.11,421.51,962.43,416.11,969.82Zm80.29,249.83c-5.17-4.93-8.93-8.68-12.87-12.23-10.07-9.07-20.14-18.15-30.38-27-5.78-5-11.69-9.93-17.91-14.36q-13.41-9.54-27.38-18.27c-7.54-4.72-15.69-8.45-23.11-13.36-15.51-10.25-32-19-45.47-32.36-2.32-2.3-5.16-4-8.78-6.85a29.51,29.51,0,0,1-1.38,2.82c-14,22-26.31,44.69-34.21,69.94-3.23,10.33-2.43,17.62,4.09,26,5.78,7.39,12.16,12.69,20.9,15.88,20.63,7.54,42.2,9.38,63.63,10,34.54,1.09,69.13.3,103.7.28C489.67,1220.11,492.1,1219.87,496.4,1219.65ZM605.93,833.24c-1.24,13.25-2.18,25-3.48,36.81-1.63,14.64-2.93,29.37-5.57,43.83-2.07,11.34,2.85,20.1,7.31,29.34,1.14,2.37,2.91,3.24,5.52,3.2,17.79-.29,35.58-.56,53.37-.61A20,20,0,0,0,673.14,943c12.42-6.92,22.62-16.62,32.66-26.54,7.27-7.2,15.3-13.78,21.59-21.79,10.78-13.74,21.57-27.41,33.51-40.15,4.6-4.92,8.14-10.87,12.16-16.35l-1-1.33-5.49,1.66c-2.13.64-4.24,1.68-6.4,1.82a34.46,34.46,0,0,0-20.79,8.58c-2.32,2-4.85,3.74-7.31,5.55-4.92,3.61-10.05,7-14.73,10.88-3.51,2.94-7.11,4.73-11.7,4.72-19.33-.07-38.67.43-58-.18-14.73-.47-27.14-6.07-33.86-20.82C611.56,844.15,609,839.39,605.93,833.24Zm73.8-349.68a46.17,46.17,0,0,0,4.81.67c14,.27,27.93.35,41.89.8a88.27,88.27,0,0,1,13.46,2c8.21,1.58,16.31,4,24.59,4.86,11.22,1.12,22.65-1.05,34.08,2.43-.26-1.37-.19-2.25-.57-2.83-12.93-19.64-27.38-37.92-45-53.45-14.11-12.39-28.49-24.15-46.51-30.29-6.24-2.13-12.15-5.3-18.41-7.36-9.34-3.06-19.08-4.15-28.68-5.68Zm143.82,45.33c.55,10.51,1.29,19.46,1.43,28.41q.33,21.81,0,43.63c-.07,4.44,1,7.77,4.11,11,7,7.33,10.2,16.06,9.88,26.68-.58,19.2-.19,38.43-.15,57.65,0,16.68-4.71,31.53-15.92,44a14.9,14.9,0,0,0-2.62,3.75c-4.55,10.33-9,20.71-13.52,31-.82,1.87-2.27,3.45-3.09,5.32-2.32,5.35-4.46,10.78-6.67,16.17l1.65.81c2.35-4.1,4.59-8.27,7.06-12.3,15.63-25.55,28.25-52.64,39.72-80.33,3.64-8.8,6.35-18.13,10.93-26.38,6.62-11.92,10.4-24.71,13.53-37.78a44.58,44.58,0,0,0-1.55-27.27c-7.8-20.33-16.61-40-28.22-58.42C834.81,546.52,829.48,538.2,823.55,528.89ZM1216,97.65c5.82,10.66,14,17.52,23.86,22.82,5.1,2.75,9.91,4.62,15.75,4.46a121,121,0,0,1,18.93,1,8.49,8.49,0,0,1,5.79,4.12,68.51,68.51,0,0,1,3.83,13.34c3.82,17.91,7,36,11.37,53.73,3.39,13.77,8.13,27.19,12.42,40.72.93,2.91,1.59,6.2,4.52,8.4V103.14c-4.46.25-8.69.68-12.92.7-17.53.08-35.06.15-52.59,0a67.31,67.31,0,0,1-12.72-1.85C1228.12,100.68,1222.07,99.1,1216,97.65ZM722.81,669.18c-1.57,15.21-3.66,30-4.43,44.92-.59,11.32,1.19,22.78.63,34.11-.55,11,5.84,19.33,8,30.81,4.13-5.91,8.07-9.93,10.05-14.78,3.09-7.57,4.92-15.68,7.16-23.6,3.63-12.87,7.15-25.77,10.78-38.65a39.7,39.7,0,0,1,1.88-4.24c2.38-5.66,4.75-11.32,7.24-17.27l-5.9-1.26c-.24-4.86-.48-9.67-.72-14.65C745.29,663.11,734.5,667.17,722.81,669.18ZM677.16,680.1c-5.43,22.49-12.48,43.42-22.68,63.2a13.46,13.46,0,0,0-1.4,7.23c1.94,16.47,8.39,31.35,16.18,45.67,1.65,3,4,5.65,6.86,9.66,3.71-4.35,6.91-7.69,9.59-11.42a11.52,11.52,0,0,0,2-6.24c.11-20.73,0-41.47,0-62.2,0-2.07.12-4.13.22-6.2.64-14.12,1.29-28.24,2-42.79ZM765.7,560.41c-9.56-8.81-18.82-13.47-29.86-13.73-11.4-.27-22.86.67-34.09-2.44-1.82-.5-4.41-.66-5.83.3-3.72,2.5-7,5.7-10.89,9V610c2.5-.93,4.81-1.84,7.16-2.66,5.26-1.84,10.44-4.12,15.85-5.25,3.47-.73,5.16-2.39,6.78-5.29,4.9-8.78,9.89-17.52,15.23-26,4.36-7,10.29-11.19,19.09-10.21C754,561.1,759,560.51,765.7,560.41ZM552.16,116.92l1,1.71L603,107.77,586.83,82.94c-6.66-.17-6.87-.35-9.68,3.07C568.72,96.23,560.47,106.6,552.16,116.92ZM760.67,581.18c-7.09,4.41-10.91,11.2-15.23,18.73h24.07C771.3,591.4,768.43,585.47,760.67,581.18ZM754.32,81.83a446.45,446.45,0,0,0-59.09-.36,22.63,22.63,0,0,0,18.13,6c4.51-.44,9-1.28,13.49-1.9Q740.58,83.67,754.32,81.83ZM466,716.88c-7.87-10.11-15-19.77-27.65-25.26C445,703.78,451.14,714.38,466,716.88Zm132.67-.75c1.4-2.1,2.34-4.25-1.53-6.36C597.82,712.78,598.22,714.46,598.62,716.13Z"/></g></g></svg>